<svg width="260" height="300" viewBox="0 0 260 300" fill="none" xmlns="http://www.w3.org/2000/svg">
<path d="M129.904 0L259.808 75V225L129.904 300L0 225L0 75L129.904 0Z" fill="#FF5700"/>
<path d="M109.5 83.8463C111.625 83.8463 112.688 89.4088 112.688 100.534C112.688 111.534 111.625 117.034 109.5 117.034H75.1875V138.409H98.0625C100.188 138.409 101.25 143.284 101.25 153.034C101.25 162.659 100.25 167.471 98.25 167.471H75.1875V212.659C75.1875 214.409 72.8125 215.534 68.0625 216.034C63.4375 216.659 59.5625 216.971 56.4375 216.971L47.625 216.596C41.5 215.846 38.4375 214.596 38.4375 212.846V88.7213C38.4375 86.7213 38.8125 85.4088 39.5625 84.7838C40.4375 84.1588 41.6875 83.8463 43.3125 83.8463H109.5Z" fill="white"/>
<path d="M163.627 212.471C163.627 214.471 157.69 215.471 145.815 215.471C133.815 215.471 127.815 214.534 127.815 212.659V90.4088C127.815 86.0338 130.127 83.8463 134.752 83.8463H170.565C203.44 83.8463 219.877 96.6588 219.877 122.284C219.877 130.034 218.377 137.096 215.377 143.471C212.377 149.721 208.127 154.721 202.627 158.471L226.252 197.846C225.252 200.846 222.002 204.284 216.502 208.159C209.002 213.534 202.815 216.221 197.94 216.221C193.065 216.221 189.44 214.471 187.065 210.971L169.44 169.909H163.627V212.471ZM163.627 117.034V145.159H164.565C176.44 145.159 182.377 140.221 182.377 130.346C182.377 125.846 181.19 122.534 178.815 120.409C176.565 118.159 172.815 117.034 167.565 117.034H163.627Z" fill="white"/>
</svg>
